<?xml version="1.0" encoding="UTF-8"?>
<svg width="34px" height="37px" viewBox="0 0 34 37" version="1.1" xmlns="http://www.w3.org/2000/svg" xmlns:xlink="http://www.w3.org/1999/xlink">
    <!-- Generator: Sketch 51.2 (57519) - http://www.bohemiancoding.com/sketch -->
    <title>002-play-store</title>
    <desc>Created with Sketch.</desc>
    <defs></defs>
    <g id="Circular-(Desktop-Version)" stroke="none" stroke-width="1" fill="none" fill-rule="evenodd">
        <g id="Login-2" transform="translate(-991.000000, -1191.000000)" fill="#1D1D1D" fill-rule="nonzero">
            <g id="Group-15" transform="translate(575.000000, 1001.000000)">
                <g id="Group-8">
                    <g id="Group-12" transform="translate(172.000000, 174.000000)">
                        <g id="Button-Primary-Copy" transform="translate(220.696629, 0.000000)">
                            <g id="002-play-store" transform="translate(23.988764, 16.701754)">
                                <path d="M30.3975612,14.4788984 L5.90374165,0.518563536 C5.30853371,0.179270278 4.63132715,0 3.94566547,0 C3.25107009,0 2.5663656,0.183724198 1.9655741,0.531289022 C0.753143035,1.23262234 0,2.53650741 0,3.93424292 L0,31.8550717 C0,33.2526481 0.753143035,34.5565332 1.96525504,35.2578665 C2.56604654,35.6057495 3.25091056,35.7894737 3.94550594,35.7894737 C4.63084856,35.7894737 5.30805512,35.6100443 5.90358212,35.2707511 L30.3970826,21.3102572 C31.6232333,20.6113099 32.3848315,19.3026527 32.3848315,17.8945778 C32.3848315,16.4865028 31.6235524,15.1778457 30.3975612,14.4788984 Z M19.7835249,11.1779074 L16.4204644,15.8487969 L8.37614384,4.67613873 L19.7835249,11.1779074 Z M3.79124004,33.3897652 C3.57252386,33.3686091 3.35795547,33.3049817 3.16635945,33.1941109 C2.68936354,32.9181269 2.39295605,32.4049717 2.39295605,31.8550717 L2.39295605,3.93408386 C2.39295605,3.38418381 2.68936354,2.87102861 3.16651898,2.59504464 C3.35747687,2.48449198 3.57029043,2.4186376 3.78900662,2.39620893 L14.9475202,17.8945778 L3.79124004,33.3897652 Z M8.37614384,31.1131759 L16.4204644,19.9403586 L19.7835249,24.6112481 L8.37614384,31.1131759 Z M29.2098574,19.2385481 L21.8720969,23.4207789 L17.8932491,17.8945778 L21.8720969,12.3683766 L29.2098574,16.5506074 C29.6922773,16.825637 29.9920349,17.3405419 29.9920349,17.8945778 C29.9920349,18.4486136 29.6924368,18.9636776 29.2098574,19.2385481 Z" id="Shape"></path>
                            </g>
                        </g>
                    </g>
                </g>
            </g>
        </g>
    </g>
</svg>